<svg xmlns="http://www.w3.org/2000/svg" id="svg1" width="30.445" height="37.376" version="1.1" viewBox="0 0 8.055 9.889">
    <g id="layer1" transform="translate(-148.774 -89.637)">
        <rect id="rect131" width="7.107" height="8.941" x="149.248" y="90.111" ry=".778" style="fill:#f9f9f9;fill-opacity:1;stroke:#b3b3b3;stroke-width:.948;stroke-linejoin:round;stroke-dasharray:none;stroke-opacity:1"/>
        <g id="g143" transform="translate(2.938 7.881)scale(.91488)">
            <path id="path141" d="M162.103 93.693a2 2 0 0 0-.091.193l-.719.118a.15.15 0 0 0-.117.138l-.023 1.104a.133.133 0 0 0 .109.138l.714.089c.065.165.145.32.252.462l-.284.691c-.023.068-.003.137.055.17l.922.532a.13.13 0 0 0 .173-.038l.457-.591q.144.015.287.01v-1.036a.95.95 0 0 1-.503-.126c-.458-.265-.616-.864-.367-1.355z" style="fill:#63a0ff;fill-opacity:1;stroke-width:.924227;stroke-linecap:round;stroke-linejoin:round"/>
            <path id="path142" d="m165.671 93.636-.898.518c.14.298.134.667-.048.983a1.06 1.06 0 0 1-.887.536v1.036q.12-.004.239-.023l.433.573a.13.13 0 0 0 .175.026l.945-.572c.06-.039.085-.109.06-.17l-.252-.679a2.2 2.2 0 0 0 .271-.476l.719-.117a.15.15 0 0 0 .117-.138l.023-1.105a.13.13 0 0 0-.11-.137l-.713-.088a2 2 0 0 0-.074-.167" style="fill:#3874d8;fill-opacity:1;stroke-width:.924227;stroke-linecap:round;stroke-linejoin:round"/>
            <path id="path143" d="M164.731 91.93a.14.14 0 0 0-.104.054l-.457.592a2 2 0 0 0-.526.014l-.434-.574a.13.13 0 0 0-.174-.027l-.942.574c-.06.037-.088.108-.06.171l.257.68a2 2 0 0 0-.16.225l-.028.054.865.5.028-.055c.289-.5.914-.684 1.39-.41a.96.96 0 0 1 .387.426l.898-.518a2 2 0 0 0-.178-.296l.284-.691c.025-.066.003-.137-.055-.17l-.922-.533a.13.13 0 0 0-.069-.017" style="fill:#99bfff;fill-opacity:1;stroke-width:.924227;stroke-linecap:round;stroke-linejoin:round"/>
        </g>
    </g>
</svg>
