<?xml version="1.0" encoding="UTF-8" standalone="no"?>
<!-- Created with Inkscape (http://www.inkscape.org/) -->

<svg
   width="8.0551767mm"
   height="9.8889723mm"
   viewBox="0 0 8.0551767 9.8889723"
   version="1.1"
   id="svg1"
   inkscape:version="1.3.2 (091e20e, 2023-11-25, custom)"
   sodipodi:docname="qubes sjetcg.svg"
   xmlns:inkscape="http://www.inkscape.org/namespaces/inkscape"
   xmlns:sodipodi="http://sodipodi.sourceforge.net/DTD/sodipodi-0.dtd"
   xmlns="http://www.w3.org/2000/svg"
   xmlns:svg="http://www.w3.org/2000/svg">
  <sodipodi:namedview
     id="namedview1"
     pagecolor="#ffffff"
     bordercolor="#000000"
     borderopacity="0.25"
     inkscape:showpageshadow="2"
     inkscape:pageopacity="0.0"
     inkscape:pagecheckerboard="0"
     inkscape:deskcolor="#d1d1d1"
     inkscape:document-units="mm"
     inkscape:zoom="4.265404"
     inkscape:cx="310.75602"
     inkscape:cy="384.606"
     inkscape:window-width="2482"
     inkscape:window-height="1411"
     inkscape:window-x="2391"
     inkscape:window-y="-9"
     inkscape:window-maximized="1"
     inkscape:current-layer="layer1" />
  <defs
     id="defs1" />
  <g
     inkscape:label="Layer 1"
     inkscape:groupmode="layer"
     id="layer1"
     transform="translate(-148.77436,-89.636609)">
    <rect
       style="fill:#f9f9f9;fill-opacity:1;stroke:#b3b3b3;stroke-width:0.948;stroke-linejoin:round;stroke-dasharray:none;stroke-opacity:1"
       id="rect131"
       width="7.1071682"
       height="8.9409781"
       x="149.24837"
       y="90.110603"
       ry="0.77813977" />
    <g
       id="g143"
       transform="matrix(0.91487717,0,0,0.91487717,2.9377918,7.8809633)">
      <path
         id="path141"
         style="fill:#63a0ff;fill-opacity:1;stroke-width:0.924227;stroke-linecap:round;stroke-linejoin:round"
         inkscape:transform-center-x="1.6828228"
         inkscape:transform-center-y="2.09e-05"
         d="m 162.10302,93.6927 c -0.0343,0.0634 -0.0665,0.128997 -0.0913,0.193579 l -0.71852,0.1175 c -0.0637,0.01041 -0.11475,0.07202 -0.1175,0.137788 l -0.0228,1.104839 c -0.003,0.0722 0.046,0.124995 0.10905,0.137788 l 0.7143,0.08876 c 0.0646,0.165304 0.14525,0.319131 0.25191,0.461548 l -0.28403,0.691475 c -0.023,0.06756 -0.003,0.137486 0.0549,0.170756 l 0.92225,0.531709 c 0.0576,0.03327 0.13023,0.01842 0.17245,-0.03804 l 0.45732,-0.591728 c 0.0957,0.01147 0.19147,0.01382 0.28657,0.01015 V 95.6733 c -0.17219,0.0043 -0.34511,-0.03614 -0.50213,-0.126798 -0.45858,-0.264762 -0.61622,-0.863223 -0.36772,-1.35421 z" />
      <path
         id="path142"
         style="fill:#3874d8;fill-opacity:1;stroke-width:0.924227;stroke-linecap:round;stroke-linejoin:round"
         inkscape:transform-center-x="-1.6828228"
         inkscape:transform-center-y="2.09e-05"
         d="m 165.67113,93.636063 -0.89773,0.518184 c 0.13953,0.298184 0.13404,0.666643 -0.0482,0.982267 -0.1934,0.33498 -0.53842,0.527991 -0.88759,0.536781 v 1.035523 c 0.0804,-0.0031 0.15996,-0.01 0.23923,-0.02282 l 0.43365,0.57313 c 0.0412,0.05071 0.11323,0.06513 0.17414,0.02621 l 0.94507,-0.572285 c 0.0609,-0.03895 0.0852,-0.109055 0.06,-0.170756 l -0.25191,-0.677953 c 0.0534,-0.07019 0.10319,-0.14572 0.15132,-0.229083 0.0467,-0.08083 0.0883,-0.164125 0.12003,-0.246835 l 0.71853,-0.1175 c 0.0636,-0.01042 0.11473,-0.07202 0.1175,-0.137788 l 0.0228,-1.104839 c 0.003,-0.07219 -0.046,-0.124125 -0.10904,-0.136943 l -0.7143,-0.08876 c -0.0222,-0.05681 -0.0472,-0.112354 -0.0735,-0.166529 z" />
      <path
         id="path143"
         style="fill:#99bfff;fill-opacity:1;stroke-width:0.924227;stroke-linecap:round;stroke-linejoin:round"
         inkscape:transform-center-x="-0.84139295"
         inkscape:transform-center-y="1.4578557"
         d="m 164.73113,91.929353 c -0.0386,0.0016 -0.0761,0.02051 -0.10397,0.05495 l -0.45732,0.591727 c -0.17667,-0.02116 -0.35418,-0.01201 -0.5258,0.01353 l -0.43365,-0.573975 c -0.0412,-0.0507 -0.11323,-0.06514 -0.17413,-0.0262 l -0.94254,0.573975 c -0.0594,0.03641 -0.0876,0.107668 -0.06,0.170756 l 0.25698,0.680486 c -0.0558,0.06883 -0.11371,0.146546 -0.15892,0.224856 -0.01,0.01717 -0.0191,0.03546 -0.0287,0.05326 l 0.86476,0.499587 c 0.009,-0.01804 0.0177,-0.03638 0.0279,-0.0541 0.28877,-0.500172 0.91429,-0.68447 1.38971,-0.409983 0.17542,0.101277 0.30642,0.251694 0.388,0.426044 l 0.89774,-0.518184 c -0.0504,-0.103467 -0.10835,-0.202387 -0.17836,-0.295864 l 0.28403,-0.691475 c 0.0254,-0.06617 0.003,-0.136641 -0.055,-0.16991 l -0.92225,-0.532555 c -0.0216,-0.01248 -0.0453,-0.01785 -0.0685,-0.01691 z" />
    </g>
  </g>
</svg>
