<svg xmlns="http://www.w3.org/2000/svg" xmlns:xlink="http://www.w3.org/1999/xlink" width="18" height="18" viewBox="0 0 18 18">
    <defs>
        <path id="path-1" d="M0 0h17.399v16.228H0z"/>
        <path id="path-3" d="M0 18h17.399V0H0z"/>
    </defs>
    <g id="PROTOTYPE-—-Valentina" fill="none" fill-rule="evenodd" stroke="none" stroke-width="1">
        <g id="valentina---1st-release-(2)" transform="translate(-12 -605)">
            <g id="Group-6" transform="translate(12 605)">
                <g id="Group-3" transform="translate(0 1.772)">
                    <mask id="mask-2" fill="#fff">
                        <use xlink:href="#path-1"/>
                    </mask>
                    <path id="Fill-1" fill="#9B9B9B" d="M4.27.04A8.7 8.7 0 0 0 0 7.53c0 4.796 3.903 8.698 8.7 8.698s8.699-3.902 8.699-8.699A8.7 8.7 0 0 0 13.059 0l-1.324 2.486a5.88 5.88 0 0 1 2.85 5.043 5.89 5.89 0 0 1-5.886 5.886 5.89 5.89 0 0 1-5.885-5.886 5.89 5.89 0 0 1 2.783-5.003" mask="url(#mask-2)"/>
                </g>
                <mask id="mask-4" fill="#fff">
                    <use xlink:href="#path-3"/>
                </mask>
                <path id="Fill-4" fill="#9B9B9B" d="M7.393 8.674h2.671V0h-2.67z" mask="url(#mask-4)"/>
            </g>
        </g>
    </g>
</svg>
