<svg xmlns="http://www.w3.org/2000/svg" width="17" height="17" viewBox="0 0 17 17">
    <g id="PROTOTYPE-—-Valentina" fill="none" fill-rule="evenodd" stroke="none" stroke-width="1">
        <g id="valentina---1st-release-(2)" fill="#9B9B9B" transform="translate(-15 -142)">
            <path id="Fill-1" d="M23.315 154.196a3.706 3.706 0 0 1-3.695-3.696 3.707 3.707 0 0 1 3.695-3.696 3.707 3.707 0 0 1 3.696 3.696 3.706 3.706 0 0 1-3.696 3.696m6.275-2.864q.053-.395.053-.832c0-.282-.018-.567-.062-.832l1.797-1.4a.43.43 0 0 0 .107-.538l-1.7-2.94c-.107-.196-.328-.258-.523-.196l-2.116.85a6.3 6.3 0 0 0-1.434-.832l-.319-2.249a.43.43 0 0 0-.425-.363h-3.4a.42.42 0 0 0-.416.363l-.319 2.249c-.522.212-1 .505-1.434.832l-2.116-.85a.423.423 0 0 0-.523.195l-1.69 2.94c-.107.186-.072.416.105.54l1.798 1.399c-.045.265-.08.558-.08.832s.018.568.062.832l-1.797 1.4a.435.435 0 0 0-.107.54l1.7 2.94a.43.43 0 0 0 .523.194l2.116-.85c.443.336.912.62 1.434.833l.319 2.249a.435.435 0 0 0 .425.362h3.4c.213 0 .39-.15.416-.362l.319-2.25c.522-.212 1-.496 1.434-.832l2.116.85c.195.07.417 0 .523-.194l1.7-2.94a.41.41 0 0 0-.106-.54z"/>
        </g>
    </g>
</svg>
