<svg xmlns="http://www.w3.org/2000/svg" width="22" height="22" fill="none" viewBox="0 0 22 22">
    <path fill="#9B9B9B" fill-rule="evenodd" d="M3.106 8.368a5.256 5.256 0 0 1 5.263-5.263 5.256 5.256 0 0 1 5.263 5.263 5.256 5.256 0 0 1-5.263 5.264 5.256 5.256 0 0 1-5.263-5.264m12.188 5.21h-.904l-.32-.308a7.4 7.4 0 0 0 1.796-4.837 7.433 7.433 0 1 0-7.433 7.433 7.4 7.4 0 0 0 4.837-1.796l.309.32v.904L19.296 21 21 19.296z" clip-rule="evenodd"/>
    <path fill="#9B9B9B" d="m15.294 13.579.354-.354-.147-.146h-.207zm-.904 0-.347.36.146.14h.201zm-.32-.31-.379-.325-.308.358.34.328zm-.8.801.36-.347-.328-.34-.358.308zm.309.32h.5v-.201l-.14-.146zm0 .904h-.5v.207l.146.147zM19.296 21l-.353.354.354.353.353-.353zM21 19.296l.354.354.353-.353-.353-.354zM3.606 8.368a4.756 4.756 0 0 1 4.763-4.763v-1a5.756 5.756 0 0 0-5.763 5.763zm4.763-4.763a4.756 4.756 0 0 1 4.763 4.763h1a5.756 5.756 0 0 0-5.763-5.763zm4.763 4.763a4.756 4.756 0 0 1-4.763 4.764v1a5.756 5.756 0 0 0 5.763-5.764zm-4.763 4.764a4.756 4.756 0 0 1-4.763-4.764h-1a5.756 5.756 0 0 0 5.763 5.764zm6.925-.053h-.904v1h.904zm-.556.14-.32-.31-.695.72.32.31zm-.288.377a7.9 7.9 0 0 0 1.916-5.163h-1a6.9 6.9 0 0 1-1.675 4.51zm1.916-5.163A7.933 7.933 0 0 0 8.433.5v1a6.933 6.933 0 0 1 6.933 6.933zM8.433.5A7.933 7.933 0 0 0 .5 8.433h1A6.933 6.933 0 0 1 8.433 1.5zM.5 8.433a7.933 7.933 0 0 0 7.933 7.933v-1A6.933 6.933 0 0 1 1.5 8.433zm7.933 7.933a7.9 7.9 0 0 0 5.163-1.916l-.652-.759a6.9 6.9 0 0 1-4.511 1.675zm4.477-1.949.309.32.72-.694-.31-.32zm.169-.027v.904h1v-.904zm.146 1.258 5.718 5.706.706-.708-5.717-5.706zm6.425 5.706 1.704-1.704-.708-.707-1.703 1.703zm1.704-2.411-5.706-5.718-.708.707 5.706 5.717z"/>
</svg>
