<?xml version="1.0" encoding="UTF-8"?>
<svg width="18px" height="18px" viewBox="0 0 18 18" version="1.1" xmlns="http://www.w3.org/2000/svg" xmlns:xlink="http://www.w3.org/1999/xlink">
    <title>Group 6</title>
    <defs>
        <polygon id="path-1" points="0 0 17.3985227 0 17.3985227 16.2284665 0 16.2284665"></polygon>
        <polygon id="path-3" points="0 18 17.3985462 18 17.3985462 0 0 0"></polygon>
    </defs>
    <g id="PROTOTYPE-—-Valentina" stroke="none" stroke-width="1" fill="none" fill-rule="evenodd">
        <g id="valentina---1st-release-(2)" transform="translate(-12.000000, -605.000000)">
            <g id="Group-6" transform="translate(12.000000, 605.000000)">
                <g id="Group-3" transform="translate(0.000000, 1.771510)">
                    <mask id="mask-2" fill="white">
                        <use xlink:href="#path-1"></use>
                    </mask>
                    <g id="Clip-2"></g>
                    <path d="M4.27041582,0.0403314053 C1.62870877,1.60434579 -2.34484915e-05,4.44677192 -2.34484915e-05,7.52907613 C-2.34484915e-05,12.3261685 3.90250899,16.2284665 8.69936689,16.2284665 C13.4962248,16.2284665 17.3985227,12.3261685 17.3985227,7.52907613 C17.3985227,4.41675786 15.7425903,1.55533844 13.0589104,0 L11.7345396,2.4855401 C13.4995076,3.54916367 14.5847038,5.45693294 14.5847038,7.52907613 C14.5847038,10.7743474 11.9446381,13.4146475 8.69936689,13.4146475 C5.45409567,13.4146475 2.81379553,10.7743474 2.81379553,7.52907613 C2.81379553,5.48577458 3.87226043,3.59770205 5.59713147,2.52634047" id="Fill-1" fill="#b9b9b9" mask="url(#mask-2)"></path>
                </g>
                <mask id="mask-4" fill="white">
                    <use xlink:href="#path-3"></use>
                </mask>
                <g id="Clip-5"></g>
                <polygon id="Fill-4" fill="#b9b9b9" mask="url(#mask-4)" points="7.39330936 8.67430045 10.0640925 8.67430045 10.0640925 -0.000234484915 7.39330936 -0.000234484915"></polygon>
            </g>
        </g>
    </g>
</svg>