<svg xmlns="http://www.w3.org/2000/svg" xmlns:xlink="http://www.w3.org/1999/xlink" width="18" height="18">
    <defs>
        <path id="a" d="M0 0h17.399v16.228H0z"/>
        <path id="c" d="M0 18h17.399V0H0z"/>
    </defs>
    <g fill="none" fill-rule="evenodd">
        <g transform="translate(0 1.772)">
            <mask id="b" fill="#fff">
                <use xlink:href="#a"/>
            </mask>
            <path fill="#9B9B9B" d="M4.27.04A8.7 8.7 0 0 0 0 7.53c0 4.796 3.903 8.698 8.7 8.698s8.699-3.902 8.699-8.699A8.7 8.7 0 0 0 13.059 0l-1.324 2.486a5.88 5.88 0 0 1 2.85 5.043 5.89 5.89 0 0 1-5.886 5.886 5.89 5.89 0 0 1-5.885-5.886 5.89 5.89 0 0 1 2.783-5.003" mask="url(#b)"/>
        </g>
        <mask id="d" fill="#fff">
            <use xlink:href="#c"/>
        </mask>
        <path fill="#9B9B9B" d="M7.393 8.674h2.671V0h-2.67z" mask="url(#d)"/>
    </g>
</svg>
