<svg xmlns="http://www.w3.org/2000/svg" xmlns:xlink="http://www.w3.org/1999/xlink" width="17" height="17" viewBox="0 0 17 17">
    <defs>
        <filter id="filter-2" width="112.6%" height="105.9%" x="-3.2%" y="-2.9%" filterUnits="objectBoundingBox">
            <feOffset dx="1" in="SourceAlpha" result="shadowOffsetOuter1"/>
            <feColorMatrix in="shadowOffsetOuter1" values="0 0 0 0 0 0 0 0 0 0 0 0 0 0 0 0 0 0 1 0"/>
        </filter>
        <path id="path-1" d="M14.951 3.624 8.763.232a1.94 1.94 0 0 0-1.838 0L.737 3.624c-.358.19-.58.5-.737.846l5.68 3.108c1.037.568 1.674 1.604 1.674 2.735v6.601c.465.129.966.129 1.41-.108l6.187-3.392c.565-.312.916-.887.916-1.497v-6.79c0-.623-.35-1.192-.916-1.503"/>
    </defs>
    <g id="PROTOTYPE-—-Valentina" fill="none" fill-rule="evenodd" stroke="none" stroke-width="1">
        <g id="valentina---1st-release-(2)" transform="translate(-14 -52)">
            <g id="Group-3" transform="translate(14 52)">
                <g id="Fill-1">
                    <use xlink:href="#path-1" fill="#000" filter="url(#filter-2)"/>
                    <use xlink:href="#path-1" fill="#9B9B9B"/>
                </g>
                <path id="Fill-3" fill="#000" d="M0 11.54c0 .673.37 1.302.964 1.642l6.517 3.707c.143.074.294.074.452.111V9.793A3.45 3.45 0 0 0 6.17 6.796L.188 3.4c-.09.237-.188.466-.188.718z"/>
            </g>
        </g>
    </g>
</svg>
