<svg xmlns="http://www.w3.org/2000/svg" width="18" height="18" viewBox="0 0 18 18">
    <g id="PROTOTYPE-—-Valentina" fill="none" fill-rule="evenodd" stroke="none" stroke-width="1">
        <g id="valentina---dark-theme" fill="#6B6B6B" transform="translate(-415 -77)">
            <g id="Internet-None" transform="translate(415 77)">
                <path id="Fill-1" d="M16.345 7.87c0 1.27-.331 2.464-.919 3.485l1.2 1.245A8.74 8.74 0 0 0 18 7.87c0-2.37-.927-4.516-2.425-6.07L14.4 3.02a6.95 6.95 0 0 1 1.945 4.85m-2.437 2.93a6 6 0 0 0 .492-2.389c0-1.531-.569-2.915-1.494-3.911L11.7 5.81a3.8 3.8 0 0 1 1.002 2.601c0 .332-.043.655-.119.96zM5.832 7.042a3.4 3.4 0 0 0-.12.899c0 .95.388 1.814 1.01 2.445l-1.226 1.227a5.2 5.2 0 0 1-1.513-3.672c0-.804.182-1.556.502-2.238l-1.27-1.27a6.8 6.8 0 0 0-.96 3.508c0 1.91.778 3.638 2.03 4.882L3.06 14.05A8.6 8.6 0 0 1 .527 7.94c0-1.762.527-3.395 1.434-4.76L0 1.218 1.218 0 17.1 15.882 15.882 17.1z"/>
            </g>
        </g>
    </g>
</svg>
