<svg xmlns="http://www.w3.org/2000/svg" width="20" height="15" viewBox="0 0 20 15">
    <g id="PROTOTYPE-—-Valentina" fill="none" fill-rule="evenodd" stroke="none" stroke-width="1">
        <g id="valentina---dark-theme" fill="#9B9B9B" transform="translate(-415 -80)">
            <path id="Fill-1" d="M4.35 4.42 2.93 3A9.97 9.97 0 0 0 0 10.07c0 2.76 1.12 5.26 2.93 7.07l1.42-1.42A7.94 7.94 0 0 1 2 10.07c0-2.21.9-4.21 2.35-5.65M18 10.07c0 2.21-.9 4.21-2.35 5.65l1.42 1.42A9.97 9.97 0 0 0 20 10.07c0-2.76-1.12-5.26-2.93-7.07l-1.42 1.42A7.94 7.94 0 0 1 18 10.07m-8-2c-1.1 0-2 .9-2 2s.9 2 2 2 2-.9 2-2-.9-2-2-2m4.24 6.24A5.94 5.94 0 0 0 16 10.07c0-1.66-.67-3.16-1.76-4.24l-1.42 1.42c.73.72 1.18 1.72 1.18 2.82s-.45 2.1-1.17 2.83zm-8.48 0A5.94 5.94 0 0 1 4 10.07c0-1.66.67-3.16 1.76-4.24l1.42 1.42C6.45 7.97 6 8.97 6 10.07s.45 2.1 1.17 2.83z" transform="translate(415 77)"/>
        </g>
    </g>
</svg>
