<?xml version="1.0" encoding="UTF-8"?>
<svg width="20px" height="15px" viewBox="0 0 20 15" version="1.1" xmlns="http://www.w3.org/2000/svg" xmlns:xlink="http://www.w3.org/1999/xlink">
    <title>Internet None</title>
    <g id="PROTOTYPE-—-Valentina" stroke="none" stroke-width="1" fill="none" fill-rule="evenodd">
        <g id="valentina---dark-theme" transform="translate(-415.000000, -80.000000)" fill="#9B9B9B">
            <g id="Fill-1" transform="translate(415.000000, 77.000000)">
                <path d="M4.35,4.42 L2.93,3 C1.12,4.81 0,7.31 0,10.07 C0,12.83 1.12,15.33 2.93,17.14 L4.35,15.72 C2.9,14.28 2,12.28 2,10.07 C2,7.86 2.9,5.86 4.35,4.42 L4.35,4.42 Z M18,10.07 C18,12.28 17.1,14.28 15.65,15.72 L17.07,17.14 C18.88,15.33 20,12.83 20,10.07 C20,7.31 18.88,4.81 17.07,3 L15.65,4.42 C17.1,5.86 18,7.86 18,10.07 L18,10.07 Z M10,8.07 C8.9,8.07 8,8.97 8,10.07 C8,11.17 8.9,12.07 10,12.07 C11.1,12.07 12,11.17 12,10.07 C12,8.97 11.1,8.07 10,8.07 L10,8.07 Z M14.24,14.31 C15.33,13.23 16,11.73 16,10.07 C16,8.41 15.33,6.91 14.24,5.83 L12.82,7.25 C13.55,7.97 14,8.97 14,10.07 C14,11.17 13.55,12.17 12.83,12.9 L14.24,14.31 Z M5.76,14.31 C4.67,13.23 4,11.73 4,10.07 C4,8.41 4.67,6.91 5.76,5.83 L7.18,7.25 C6.45,7.97 6,8.97 6,10.07 C6,11.17 6.45,12.17 7.17,12.9 L5.76,14.31 Z"></path>
            </g>
        </g>
    </g>
</svg>